<?xml version="1.0" standalone="no"?>
<!DOCTYPE svg PUBLIC "-//W3C//DTD SVG 20010904//EN"
 "http://www.w3.org/TR/2001/REC-SVG-20010904/DTD/svg10.dtd">
<svg version="1.0" xmlns="http://www.w3.org/2000/svg"
 width="473.000000pt" height="473.000000pt" viewBox="0 0 473.000000 473.000000"
 preserveAspectRatio="xMidYMid meet">

<g transform="translate(0.000000,473.000000) scale(0.100000,-0.100000)"
fill="#000000" stroke="none">
<path d="M2265 4350 c-868 -60 -1609 -660 -1849 -1497 -278 -969 184 -2003
1089 -2438 302 -145 572 -207 905 -207 334 0 607 62 905 207 424 205 754 536
960 960 104 213 166 420 196 655 15 122 15 378 0 500 -90 705 -524 1312 -1156
1615 -71 35 -164 75 -205 90 -256 91 -569 134 -845 115z m470 -114 c205 -37
346 -83 531 -171 534 -254 919 -726 1065 -1302 79 -312 78 -665 -1 -976 -45
-175 -136 -389 -230 -542 -267 -436 -704 -758 -1197 -885 -210 -53 -498 -74
-703 -51 -462 54 -868 249 -1190 571 -295 294 -478 649 -557 1080 -25 134 -25
506 0 640 38 208 83 349 167 525 290 612 853 1025 1525 1120 132 19 465 14
590 -9z"/>
<path d="M2206 4200 c-341 -39 -670 -167 -941 -367 -116 -85 -323 -292 -408
-408 -497 -675 -501 -1592 -10 -2278 68 -95 245 -282 341 -360 453 -370 1051
-515 1626 -393 257 55 506 165 730 323 111 79 355 326 439 443 88 124 214 376
260 520 222 691 52 1424 -447 1939 -300 308 -647 490 -1081 566 -107 19 -398
27 -509 15z m494 -151 c28 -6 54 -17 56 -24 3 -7 -2 -29 -10 -50 -13 -29 -20
-36 -33 -30 -34 14 -110 17 -132 5 -35 -18 -54 -74 -41 -116 15 -43 40 -57
115 -64 l60 -5 3 -39 c4 -46 -7 -56 -63 -56 -106 1 -194 45 -226 113 -34 76
-19 157 40 216 56 56 130 72 231 50z m-647 -41 c3 -13 15 -72 27 -133 12 -60
23 -111 25 -113 1 -1 35 5 75 13 40 8 74 14 76 13 1 -2 5 -24 9 -49 l7 -46
-129 -25 c-70 -15 -130 -24 -132 -22 -4 4 -71 332 -71 350 0 10 32 20 101 33
4 0 9 -9 12 -21z m995 -54 c77 -32 122 -95 122 -171 -1 -93 -58 -171 -143
-194 -83 -22 -205 29 -242 102 -34 65 -13 182 41 231 55 49 149 63 222 32z
m-1248 -121 c47 -49 107 -111 134 -140 l49 -52 -58 -28 -57 -28 -29 34 -28 34
-42 -18 -41 -19 6 -47 6 -46 -51 -22 c-28 -12 -53 -20 -55 -18 -10 10 -56 381
-48 384 5 2 32 14 59 27 28 14 55 25 60 25 6 1 49 -38 95 -86z m1645 -98 c52
-37 97 -69 99 -73 2 -4 -8 -23 -24 -42 l-29 -35 -59 42 c-57 40 -60 41 -76 24
-15 -17 -13 -20 44 -60 l60 -42 -27 -37 c-15 -20 -28 -38 -28 -39 -1 -1 -26
15 -56 37 -29 22 -57 40 -60 40 -3 0 -21 -22 -40 -50 -19 -27 -38 -50 -42 -50
-21 0 -86 56 -82 69 15 39 201 290 213 286 7 -3 56 -34 107 -70z m-2008 -57
c15 -14 23 -33 23 -55 0 -30 3 -33 31 -33 44 0 89 -47 89 -95 0 -20 -7 -49
-15 -64 -14 -28 -108 -120 -153 -149 -26 -17 -21 -22 -186 174 l-74 89 31 34
c18 18 58 53 91 77 69 52 123 59 163 22z m2373 -291 c0 -4 -15 -20 -32 -37
l-33 -29 -50 55 c-47 52 -51 55 -70 40 -19 -14 -19 -16 30 -65 l49 -51 -35
-36 -36 -36 -43 51 c-24 28 -46 51 -50 51 -4 0 -28 -19 -54 -41 l-47 -42 -35
34 c-19 18 -34 39 -34 45 0 7 60 68 133 134 l132 122 87 -94 c48 -51 88 -96
88 -101z m-1196 128 c527 -92 939 -504 1031 -1032 8 -47 15 -87 15 -89 0 -2
86 -4 190 -4 151 0 197 -3 220 -15 54 -28 76 -105 46 -164 -29 -54 -34 -56
-255 -61 l-206 -5 -7 -58 c-31 -246 -166 -514 -354 -702 -493 -493 -1287 -493
-1780 -1 -333 334 -453 820 -312 1266 142 448 520 780 983 864 107 19 321 20
429 1z m-1446 -141 c78 -32 122 -95 122 -174 0 -129 -108 -233 -224 -216 -56
9 -120 54 -146 105 -81 159 87 352 248 285z m2796 -217 c31 -54 56 -100 56
-103 0 -5 -81 -46 -85 -42 -1 2 -17 29 -35 60 -36 66 -41 70 -59 58 -11 -6 -6
-22 22 -72 l36 -65 -40 -22 c-22 -13 -42 -21 -43 -20 -2 2 -18 29 -37 59 -18
30 -33 56 -34 58 -5 6 -35 -11 -35 -20 0 -5 16 -37 35 -69 19 -33 35 -63 35
-67 0 -4 -18 -17 -39 -29 l-39 -23 -66 115 c-36 63 -66 118 -66 123 0 5 71 49
157 99 139 80 159 89 169 74 6 -9 36 -60 68 -114z m147 -347 c21 -69 39 -125
39 -126 1 -5 -83 -24 -89 -20 -5 3 -17 35 -27 71 -11 37 -24 65 -32 65 -22 0
-23 -23 -3 -86 l18 -62 -37 -11 c-20 -6 -42 -11 -47 -11 -6 0 -19 29 -29 65
-18 64 -26 73 -51 57 -9 -6 -8 -23 7 -71 11 -34 20 -69 20 -76 0 -13 -75 -43
-84 -34 -2 2 -22 61 -44 132 l-40 127 147 46 c80 25 157 49 171 54 14 5 29 7
34 6 5 -1 26 -58 47 -126z m-2998 101 l25 -10 -45 -123 c-24 -67 -46 -125 -49
-127 -5 -5 -325 109 -338 120 -9 8 6 71 23 98 5 8 46 -2 132 -33 68 -25 126
-42 130 -38 3 4 16 35 29 70 25 68 25 68 93 43z m-354 -297 c3 -2 -1 -19 -7
-37 -19 -54 -15 -130 8 -155 57 -61 148 -25 166 66 6 30 5 32 -20 32 -21 0
-26 -5 -26 -25 0 -27 -7 -29 -60 -18 l-33 6 7 76 c3 41 9 78 14 82 11 10 196
-12 204 -25 11 -16 9 -155 -2 -197 -15 -54 -51 -101 -95 -126 -100 -57 -234 4
-266 120 -14 52 -7 149 14 200 l16 38 38 -16 c20 -9 39 -18 42 -21z m240 -563
c43 -30 49 -49 22 -70 -37 -28 -90 -41 -173 -41 -54 0 -84 -5 -113 -20 -21
-11 -40 -18 -42 -16 -7 6 27 79 45 99 60 67 199 92 261 48z m3019 -4 c48 -22
98 -76 105 -116 7 -34 4 -36 -29 -15 -19 13 -55 20 -128 24 -103 6 -172 28
-183 57 -8 21 38 64 78 73 45 10 104 2 157 -23z m-2972 -112 c-24 -94 -195
-167 -284 -121 -36 19 -66 52 -57 65 16 28 72 43 159 46 91 2 155 20 172 46
11 18 18 -5 10 -36z m2789 5 c17 -6 71 -13 121 -15 88 -3 143 -19 160 -46 3
-6 -7 -25 -24 -42 -90 -90 -322 0 -322 124 0 20 1 21 18 6 9 -8 31 -21 47 -27z
m-2689 -351 c14 -22 24 -42 22 -43 -2 -2 -47 -29 -100 -61 -54 -31 -98 -60
-98 -63 0 -2 14 -27 30 -54 17 -26 30 -52 30 -56 0 -4 -14 -15 -32 -25 -25
-15 -34 -16 -43 -5 -14 15 -104 165 -108 179 -2 8 248 166 265 168 4 1 19 -17
34 -40z m2661 -22 c48 -30 107 -66 131 -81 l43 -27 -18 -30 c-31 -53 -36 -53
-110 -6 -37 24 -75 47 -83 52 -8 5 13 -25 48 -67 34 -42 62 -80 62 -85 0 -4
-10 -21 -23 -36 l-22 -28 -80 30 c-44 17 -82 31 -84 31 -3 0 26 -23 64 -50 39
-28 71 -55 73 -60 4 -12 -36 -70 -48 -70 -7 0 -214 153 -244 181 -8 7 56 119
68 119 3 0 39 -13 80 -29 83 -32 83 -31 19 45 -24 28 -43 57 -43 63 0 16 60
101 71 101 5 0 48 -24 96 -53z m-2469 -250 c77 -52 107 -136 74 -210 -56 -125
-213 -141 -299 -29 -24 32 -28 46 -28 104 0 65 1 68 40 108 22 22 53 45 70 50
42 13 104 3 143 -23z m2214 -111 c102 -117 107 -168 29 -246 -87 -87 -149 -74
-260 52 -39 45 -71 84 -70 87 0 3 16 19 36 36 l35 29 25 -29 c106 -126 149
-155 181 -123 25 25 11 56 -59 137 l-71 83 33 28 c19 16 39 28 44 26 6 -1 40
-37 77 -80z m-1966 -107 c136 -77 164 -168 66 -215 -23 -11 -40 -23 -37 -26 7
-7 -25 -138 -34 -138 -3 0 -24 12 -45 26 -32 22 -37 30 -31 51 16 65 17 84 5
98 -12 14 -17 10 -43 -30 -16 -25 -34 -45 -39 -45 -8 0 -23 9 -76 46 -5 3 167
264 174 264 4 0 31 -14 60 -31z m1632 -79 c11 -44 8 -50 -22 -50 -24 0 -66
-26 -66 -41 0 -5 28 -7 69 -3 69 7 70 6 102 -25 28 -28 31 -37 26 -73 -3 -25
-16 -51 -33 -69 -33 -35 -101 -69 -136 -69 -21 0 -27 6 -35 39 l-10 39 36 7
c40 7 81 30 81 45 0 5 -33 8 -76 7 -72 -2 -77 -1 -100 26 -51 60 -17 138 81
183 27 13 55 24 61 24 6 0 16 -18 22 -40z m-1318 -87 c52 -20 97 -37 98 -39 6
-4 -22 -74 -29 -74 -4 0 -32 10 -63 21 -31 12 -59 19 -62 16 -14 -14 7 -33 55
-51 38 -13 51 -23 47 -33 -4 -8 -9 -26 -12 -39 -3 -13 -8 -24 -10 -24 -2 0
-29 10 -60 21 -45 17 -58 19 -65 8 -12 -19 -5 -24 61 -49 33 -12 60 -24 60
-27 0 -2 -7 -19 -14 -38 -13 -31 -18 -34 -38 -26 -13 5 -61 23 -108 41 -47 18
-86 34 -88 35 -2 2 71 197 103 278 10 23 15 22 125 -20z m1071 -52 c58 -59 28
-149 -61 -185 -35 -14 -39 -18 -31 -38 25 -70 24 -75 -25 -87 -26 -7 -48 -11
-49 -9 -1 2 -23 70 -48 151 l-45 149 31 13 c69 28 94 33 145 34 46 1 57 -3 83
-28z m-779 -27 c4 -3 10 -41 14 -85 4 -44 10 -77 14 -72 4 4 20 39 36 77 l29
68 65 -6 c35 -4 65 -8 67 -9 1 -2 -3 -74 -9 -160 l-12 -158 -45 3 -46 3 2 95
c2 106 4 107 -52 -24 -22 -51 -29 -57 -48 -52 -12 3 -30 6 -39 6 -13 0 -18 13
-23 58 -14 119 -20 124 -34 29 l-13 -88 -42 6 c-22 4 -43 9 -46 12 -4 4 22
172 42 266 l10 48 61 -7 c34 -4 65 -8 69 -10z m508 -149 c12 -86 21 -157 19
-159 -2 -2 -25 -7 -50 -11 l-45 -7 -22 154 c-13 84 -22 156 -22 160 0 7 31 15
71 17 l26 1 23 -155z"/>
<path d="M2944 3869 c-54 -27 -75 -128 -34 -169 26 -26 70 -26 99 1 47 44 55
116 16 154 -26 27 -47 30 -81 14z"/>
<path d="M1695 3755 c8 -49 10 -50 36 -38 22 9 22 10 -10 44 l-32 34 6 -40z"/>
<path d="M1316 3579 c-26 -20 -26 -22 -10 -40 13 -15 20 -16 31 -7 47 39 27
84 -21 47z"/>
<path d="M1401 3473 c-20 -17 -21 -19 -6 -40 21 -30 41 -29 61 2 31 47 -9 75
-55 38z"/>
<path d="M2310 3335 c-8 -2 -49 -9 -90 -15 -304 -50 -586 -255 -743 -540 -43
-78 -89 -210 -108 -305 -18 -90 -18 -300 0 -390 85 -430 416 -761 846 -846 90
-18 300 -18 390 0 423 84 753 407 841 826 113 534 -214 1079 -739 1229 -126
37 -318 56 -397 41z m271 -100 c96 -16 200 -50 277 -89 54 -27 70 -42 28 -26
-18 7 -28 5 -40 -8 -14 -16 -12 -21 19 -61 19 -24 32 -48 29 -53 -8 -13 45
-68 65 -68 20 0 41 -44 30 -61 -5 -9 -15 -4 -35 19 -22 25 -31 29 -47 21 -11
-7 -16 -17 -13 -26 4 -9 1 -22 -5 -29 -8 -10 -8 -23 1 -49 13 -38 24 -44 38
-18 9 15 14 12 41 -17 17 -19 31 -38 31 -42 0 -5 -16 -8 -36 -8 -30 0 -35 -3
-31 -17 4 -10 14 -42 24 -71 16 -50 19 -53 45 -48 16 3 28 1 28 -4 0 -6 -4
-10 -8 -10 -4 0 -16 -23 -26 -50 -10 -28 -40 -87 -67 -131 l-50 -82 17 -35
c11 -24 15 -51 12 -89 l-5 -54 75 -65 c78 -66 97 -74 116 -49 6 8 51 26 99 39
75 21 89 22 94 10 3 -8 4 -56 1 -107 -3 -85 -7 -99 -47 -177 -52 -101 -110
-172 -202 -246 -187 -152 -423 -232 -653 -223 -74 4 -88 7 -108 28 -16 16 -19
25 -10 28 6 3 12 11 12 18 0 7 15 17 33 20 46 10 57 23 57 64 0 32 6 39 50 69
39 25 50 38 50 58 0 14 14 44 31 66 21 26 32 51 33 75 l1 36 -75 17 c-75 16
-125 37 -168 71 -22 17 -27 17 -59 4 -31 -13 -34 -13 -29 1 14 35 -41 100 -89
106 -18 2 -34 11 -41 25 -6 13 -19 33 -30 44 -22 25 -110 69 -139 69 -11 0
-35 9 -53 20 -26 16 -36 18 -51 8 -28 -17 -69 4 -120 64 -42 48 -44 52 -32 82
24 59 24 66 4 66 -10 0 -28 -7 -40 -15 -21 -15 -22 -14 -29 21 -5 27 -2 45 14
73 30 52 46 60 82 39 17 -10 37 -15 45 -12 8 4 15 1 15 -5 0 -6 7 -11 15 -11
11 0 15 -12 15 -47 0 -47 0 -48 -32 -48 -50 0 -47 -16 13 -57 59 -41 69 -44
87 -26 9 9 6 18 -16 41 l-27 28 27 21 c24 16 26 23 17 40 -15 28 14 57 67 65
25 4 53 19 80 43 39 36 85 55 227 95 35 10 57 22 57 31 0 8 -4 14 -10 14 -5 0
-7 7 -4 15 9 21 30 19 54 -7 16 -18 24 -20 38 -12 9 6 17 21 17 32 0 12 14 35
29 51 l29 30 -27 11 c-20 7 -27 16 -25 33 5 31 -8 47 -38 47 -15 0 -33 10 -45
25 -22 28 -48 33 -48 10 0 -8 -5 -15 -12 -15 -7 0 -38 -26 -70 -57 -32 -31
-60 -55 -62 -52 -3 3 -8 23 -12 45 l-6 41 75 42 c82 44 102 49 111 26 3 -8 13
-15 22 -15 9 0 23 -8 30 -17 13 -17 15 -16 33 6 12 16 24 22 36 17 20 -7 45
10 45 31 0 31 -32 81 -56 87 -13 4 -24 11 -24 16 0 6 -10 10 -23 10 -33 0 -36
5 -25 56 6 25 8 48 5 51 -7 6 -67 -29 -67 -39 0 -4 8 -8 17 -8 14 0 14 -3 5
-12 -10 -10 -15 -10 -20 -1 -12 18 -35 19 -79 0 -30 -11 -43 -23 -43 -36 0
-10 -7 -22 -16 -25 -10 -4 -14 -12 -10 -24 4 -9 -7 -2 -24 16 -18 20 -37 32
-45 28 -9 -3 -15 1 -15 10 0 9 -8 18 -19 21 -10 2 -23 15 -29 28 -10 22 -7 25
52 53 172 82 379 110 567 77z m-784 -256 c-1 -19 -207 -221 -207 -204 0 28
172 225 197 225 6 0 11 -9 10 -21z m1338 -259 c10 -11 25 -20 33 -20 9 0 24
-7 34 -16 16 -16 18 -15 24 0 5 13 9 14 20 5 11 -9 18 -8 29 1 17 14 17 14 33
-15 9 -16 6 -22 -19 -37 -16 -10 -29 -23 -29 -29 0 -6 -16 1 -35 16 -20 15
-41 25 -48 22 -7 -3 -28 -12 -47 -20 -35 -15 -36 -15 -37 6 -3 38 8 107 16
107 4 0 16 -9 26 -20z m-1649 -275 c-4 -19 -4 -57 0 -84 6 -43 12 -53 51 -83
50 -37 124 -130 156 -195 l20 -41 -21 -51 c-12 -27 -22 -69 -22 -92 0 -37 6
-47 50 -91 28 -27 50 -55 50 -63 0 -14 111 -102 146 -115 12 -5 25 -24 33 -52
19 -64 68 -135 124 -179 27 -22 46 -39 42 -39 -3 0 -38 14 -78 30 -144 62
-308 194 -403 325 -47 64 -127 233 -147 310 -24 91 -40 242 -33 315 11 104 18
140 28 140 6 0 8 -14 4 -35z"/>
<path d="M2607 3164 c-4 -5 -46 -9 -92 -10 -95 -3 -108 -7 -100 -35 5 -15 -1
-23 -31 -35 -36 -15 -37 -17 -19 -30 11 -8 26 -12 35 -8 57 23 72 23 95 0 21
-21 23 -32 20 -78 -5 -69 0 -85 35 -103 27 -14 31 -13 47 3 10 10 37 30 59 45
69 47 88 73 87 118 -1 25 -11 50 -25 68 -13 16 -27 36 -33 45 -11 18 -66 32
-78 20z"/>
<path d="M2773 2973 c-55 -11 -43 -58 13 -51 34 4 56 34 34 48 -8 5 -17 9 -20
8 -3 0 -15 -3 -27 -5z"/>
<path d="M1020 3250 c-32 -32 -26 -77 16 -116 28 -27 44 -34 75 -34 95 0 108
109 19 155 -40 21 -86 19 -110 -5z"/>
<path d="M1214 1232 c-50 -42 -55 -98 -10 -127 21 -14 28 -14 59 -2 41 18 67
51 67 88 0 53 -71 78 -116 41z"/>
<path d="M1550 994 c-12 -22 -12 -27 0 -34 42 -27 76 5 45 40 -23 26 -29 25
-45 -6z"/>
<path d="M2836 821 c-7 -11 10 -61 22 -61 19 0 44 28 41 46 -4 21 -52 33 -63
15z"/>
</g>
</svg>
